<?xml version="1.0" ?><!DOCTYPE svg  PUBLIC '-//W3C//DTD SVG 1.1//EN'  'http://www.w3.org/Graphics/SVG/1.1/DTD/svg11.dtd'><svg enable-background="new 0 0 128 128" id="Слой_1" version="1.1" viewBox="0 0 128 128" xml:space="preserve" xmlns="http://www.w3.org/2000/svg" xmlns:xlink="http://www.w3.org/1999/xlink"><g><g><path d="M13.7,106.6L3.3,46.9C1.5,36.4,8.2,26.3,18.6,23.9l82-18.6c13.4-3,25.8,8.1,24.3,21.7l-8.8,78.3    c-1.1,10.1-9.7,17.8-19.9,17.8H44.5H33.4C23.6,123.1,15.3,116.1,13.7,106.6z" fill="#EBDEEE"/></g></g><g><g><path d="M102.8,52.8C102.8,31.4,85.4,14,64,14S25.2,31.4,25.2,52.8c0,0.7,0,1.4,0.1,2    c1.1,21.8,18.8,47.7,36.2,58.5c0.8,0.5,1.7,0.7,2.6,0.7l0,0c0.9,0,1.7-0.2,2.5-0.7c17.4-10.7,35.1-36.7,36.2-58.5    C102.8,54.1,102.8,53.5,102.8,52.8z" fill="#4FC2BD"/></g><g opacity="0.2"><path d="M64,14c-1.1,0-2.3,0.1-3.4,0.2C80.4,15.9,96,32.5,96,52.8c0,0.7,0,1.3-0.1,2c-1,21.4-18.2,46.9-35.3,57.9    c0.3,0.2,0.6,0.4,0.9,0.6c0.8,0.5,1.7,0.7,2.6,0.7c0.9,0,1.7-0.2,2.5-0.7c17.4-10.7,35.1-36.7,36.2-58.5c0-0.7,0.1-1.3,0.1-2    C102.8,31.4,85.4,14,64,14z" fill="#62345B"/></g><g><path d="M64,115.2c-1.1,0-2.3-0.3-3.2-0.9C44,104,25.1,78.3,24,54.9c0-0.7-0.1-1.4-0.1-2.1c0-22.1,18-40,40-40    s40,18,40,40c0,0.7,0,1.4-0.1,2.1c-1.1,23.4-20,49.1-36.8,59.5C66.3,114.9,65.2,115.2,64,115.2C64.1,115.2,64,115.2,64,115.2z     M64,15.2c-20.7,0-37.5,16.8-37.5,37.5c0,0.7,0,1.3,0.1,2c1.1,21.9,19.3,47.4,35.6,57.5c0.5,0.3,1.2,0.5,1.9,0.5v1.2l0-1.3    c0.7,0,1.3-0.2,1.8-0.5c16.3-10.1,34.5-35.6,35.6-57.5c0-0.7,0.1-1.3,0.1-2C101.5,32.1,84.7,15.2,64,15.2z" fill="#62345B"/></g><g><circle cx="64" cy="52.8" fill="#FFFFFF" r="30.6"/></g><g><path d="M78.1,66.1H49.9c-1.7,0-3-1.3-3-3v-3.9h34.3v3.9C81.1,64.7,79.8,66.1,78.1,66.1z" fill="#E3D34C"/></g><g><path d="M78.1,67.3H49.9c-2.3,0-4.2-1.9-4.2-4.2v-3.9c0-0.7,0.6-1.2,1.2-1.2h34.3c0.7,0,1.2,0.6,1.2,1.2v3.9    C82.4,65.4,80.5,67.3,78.1,67.3z M48.1,60.5v2.6c0,1,0.8,1.8,1.8,1.8h28.3c1,0,1.8-0.8,1.8-1.8v-2.6H48.1z" fill="#62345B"/></g><g><path d="M84,55.9H44c-0.7,0-1.2-0.6-1.2-1.2s0.6-1.2,1.2-1.2h40c0.7,0,1.2,0.6,1.2,1.2S84.7,55.9,84,55.9z" fill="#62345B"/></g><g><path d="M81.1,50.1H46.9v0c0-4.5,2.8-8.7,7.1-10.2c6.7-2.3,13.4-2.3,20.1,0C78.3,41.4,81.1,45.5,81.1,50.1    L81.1,50.1z" fill="#E3D34C"/></g><g><path d="M81.2,51.3C81.2,51.3,81.2,51.3,81.2,51.3H46.9c-0.7,0-1.2-0.6-1.2-1.2c0-5.2,3.2-9.7,7.9-11.4    c6.9-2.4,14-2.4,20.9,0c4.7,1.6,7.8,6.1,7.9,11.1c0,0.1,0,0.2,0,0.2C82.4,50.8,81.9,51.3,81.2,51.3z M48.2,48.8h31.6    c-0.5-3.6-2.8-6.6-6.2-7.8c-6.4-2.2-12.9-2.2-19.3,0C51,42.2,48.6,45.3,48.2,48.8z" fill="#62345B"/></g><g><path d="M54.6,46.7c-0.8,0-1.5-0.7-1.5-1.5s0.7-1.5,1.5-1.5s1.5,0.7,1.5,1.5S55.4,46.7,54.6,46.7z" fill="#62345B"/></g><g><path d="M68.3,44.4c-0.8,0-1.5-0.7-1.5-1.5s0.7-1.5,1.5-1.5s1.5,0.7,1.5,1.5S69.1,44.4,68.3,44.4z" fill="#62345B"/></g><g><path d="M74,47.8c-0.8,0-1.5-0.7-1.5-1.5s0.7-1.5,1.5-1.5s1.5,0.7,1.5,1.5S74.8,47.8,74,47.8z" fill="#62345B"/></g><g><path d="M64,84.7c-17.6,0-31.9-14.3-31.9-31.9S46.4,20.9,64,20.9c17.6,0,31.9,14.3,31.9,31.9S81.6,84.7,64,84.7z     M64,23.4c-16.2,0-29.4,13.2-29.4,29.4S47.8,82.2,64,82.2S93.4,69,93.4,52.8S80.2,23.4,64,23.4z" fill="#62345B"/></g></g></svg>